<svg width="682" height="683" viewBox="0 0 682 683" fill="none" xmlns="http://www.w3.org/2000/svg">
<path d="M310.667 1.33329C244.8 7.73329 184 32 130.667 73.0666C104.667 93.0666 70.9333 130.667 51.4666 161.333C43.0666 174.533 26.6666 208.133 20.8 224.133C14.2666 242 7.19997 269.467 3.7333 290.667C-0.400033 316.667 -0.400033 366 3.7333 392C9.7333 428.8 19.2 458.4 35.3333 491.333C52.9333 527.2 71.2 552.667 100.533 582.133C130 611.467 155.467 629.733 191.333 647.333C224.267 663.467 253.867 672.933 290.667 678.933C316.667 683.067 366 683.067 392 678.933C428.8 672.933 458.4 663.467 491.333 647.333C527.2 629.733 552.667 611.467 582.133 582.133C611.467 552.667 629.733 527.2 647.333 491.333C659.067 467.467 664.933 451.867 671.333 427.867C679.733 395.867 681.733 378.4 681.733 341.333C681.733 304.267 679.733 286.8 671.333 254.8C664.933 230.8 659.067 215.2 647.333 191.333C629.733 155.467 611.467 130 582.133 100.533C552.667 71.2 527.2 52.9333 491.333 35.3333C458.533 19.2 428.133 9.59996 392.667 3.99996C373.067 0.93329 329.333 -0.533377 310.667 1.33329ZM373.067 54.8C438.133 61.8666 497.6 90.8 544.8 137.867C600.133 193.2 629.333 263.6 629.333 341.333C629.333 419.067 600.133 489.467 544.8 544.8C489.467 600.133 419.067 629.333 341.333 629.333C263.6 629.333 193.2 600.133 137.867 544.8C82.5333 489.467 53.3333 419.067 53.3333 341.333C53.3333 263.6 82.5333 193.2 137.867 137.867C184.4 91.3333 244.533 62 308 54.8C322.667 53.2 358.133 53.0666 373.067 54.8Z" fill="#AAAAAA"/>
<path d="M329.867 161.2C323.467 164.133 318.267 170.533 316 178C314.933 181.867 314.667 206.667 314.933 266.667C315.333 347.867 315.467 350.133 318.133 355.333C320.267 359.6 330.933 368.4 374.133 401.067C403.333 423.333 430 443.067 433.333 445.067C455.6 458.4 481.867 434.533 470.667 411.333C468 405.733 462.533 401.333 417.867 367.733L368 330.4V256C368 204 367.6 180.4 366.533 177.2C362.667 165.867 352.933 158.667 341.333 158.667C338 158.667 332.8 159.867 329.867 161.2Z" fill="#AAAAAA"/>
</svg>
