<svg width="683" height="466" viewBox="0 0 683 466" fill="none" xmlns="http://www.w3.org/2000/svg">
<path d="M306 1.33335C270.4 3.46668 230.8 9.60001 200.267 17.4667C175.467 23.8667 162.533 28.1333 159.867 31.0667C156.4 34.8 156.667 40.2667 160.4 43.7333C164.133 47.2 169.467 47.4667 177.467 44.5333C180.667 43.4667 192.533 40.1333 203.733 37.2C302.133 11.8667 416.8 15.4667 506.133 46.6667C577.067 71.3333 628.133 109.467 650 154C653.867 162 658.133 172.533 659.333 177.333C665.467 202 662.133 244.667 651.467 276.4C643.6 299.6 632.4 318.267 616.667 334.133C591.333 359.6 558.267 374.133 516 378.667C496.933 380.667 492.8 381.867 490.933 386C488.667 390.8 488.933 392.4 492.267 396.667L495.2 400.4L508.533 399.467C523.467 398.533 539.6 395.867 554.533 391.733C599.2 379.6 632 355.067 654.933 316.8L661.467 306L660.533 312C650.533 379.333 595.867 433.6 528 443.333C507.2 446.267 486.133 446.933 461.333 445.467C420.133 442.8 399.6 438.533 374.533 427.2C347.867 415.333 328.4 401.467 293.333 369.867C252 332.667 242.8 326.533 228.533 326.533C224.4 326.533 213.2 327.2 203.733 328.133C179.467 330.267 138.133 329.067 120 325.6C77.2 317.2 65.3333 312.133 47.3333 294C32.6667 279.467 24.8 263.6 20.8 241.333L20 236.8L24.2667 240.8C45.7333 260.933 77.2 274.267 118.533 280.667C139.6 284 179.733 284.667 205.733 282.133C251.6 277.733 262.4 282.533 316.8 331.733C346.933 358.8 362.933 370.933 381.333 380.533C402.533 391.467 429.467 398.667 449.467 398.667C456.133 398.667 457.467 398.267 459.867 395.2C463.467 390.667 463.333 387.6 459.733 383.467C457.067 380.4 454.8 379.733 440.667 378C398.533 372.533 378.8 361.2 322.933 310.4C285.333 276.267 267.333 265.467 240.8 261.333C233.6 260.267 226 260.4 206.133 262.133C177.2 264.667 139.333 264.133 119.333 260.8C85.0667 255.333 58.4 244.267 41.4667 228.533C24.9333 213.2 19.0667 199.867 20.4 180.667C23.3333 140.267 59.6 98.4 115.867 70C122.533 66.6667 129.2 62.8 130.667 61.3333C136.267 55.7333 131.733 45.3333 123.6 45.3333C121.6 45.3333 113.467 48.8 105.6 52.9333C50.1333 82.4 15.6 118.667 3.73332 159.6C0.79999 169.333 0.666656 172.533 0.666656 208.667C0.666656 241.467 1.06666 248.667 3.06666 255.867C8.39999 275.2 16 289.733 27.8667 303.2C48.6667 326.667 70.6667 337.067 118 345.467C139.067 349.2 184.667 350.267 210.667 347.6C221.067 346.533 230.267 346.267 232.533 346.8C238.133 348.4 252.533 359.867 278 382.933C315.333 416.667 332.667 429.2 360.667 442.667C396.267 459.867 427.2 465.6 484 465.6C524.8 465.733 548 462 573.733 451.2C620 431.867 657.867 391.067 673.2 344C678.667 327.333 680.267 317.867 681.333 294.667C682.933 262.533 682.933 197.333 681.333 186C678.267 164.4 667.2 138.933 652.267 119.333C610.533 64.6667 528.133 23.0667 430 7.33335C395.733 1.86668 340.4 -0.799988 306 1.33335Z" fill="#AAAAAA"/>
<path d="M306 44.1333C210.133 50.1333 122.267 81.2 75.0667 125.867C53.4667 146.267 41.3333 169.733 43.0667 187.867C43.8667 197.333 46.1333 202 54 209.867C79.6 235.333 134.133 245.867 208 239.333C240.133 236.4 255.333 238.667 278.133 249.467C296 257.867 309.467 267.867 340 295.333C368.133 320.667 375.6 326.933 385.867 333.867C409.6 350 425.867 354.8 465.2 357.2C503.333 359.6 537.467 354.933 563.333 343.733C610.667 323.2 636.8 278.667 639.6 214C640.533 191.6 638.4 181.333 629.333 163.333C590.133 85.8667 452.4 35.0666 306 44.1333ZM372.667 64C445.6 68.6667 509.2 87.0667 556.667 117.333C581.467 133.067 597.6 148.4 608.667 166.533C618.8 183.467 621.467 198.533 618.8 225.333C612.667 287.6 582.133 323.333 525.333 334.533C503.067 338.933 457.2 338.667 434 333.867C421.2 331.333 402.667 321.867 388.533 310.8C382 305.733 365.867 291.867 352.667 280C324.267 254.4 310 243.467 294.4 235.333C262.933 218.933 243.6 215.867 198.933 220C175.867 222.133 138 221.067 120.667 218C96.5333 213.6 77.2 205.2 67.8667 194.933C62.5333 189.2 62.4 188.8 63.2 182.133C63.6 178.4 66.1333 170.933 68.8 165.333C75.2 152.667 93.8667 133.6 112 121.6C174.4 80.1333 275.6 57.8667 372.667 64Z" fill="#AAAAAA"/>
<path d="M163.2 114.8C143.867 117.333 126.667 134.4 124.133 153.733C121.333 175.733 133.2 196.533 153.067 204.133C164.267 208.4 178.533 208.133 188.8 203.467C208.667 194.4 219.733 173.867 216 153.067C211.333 127.6 188.933 111.333 163.2 114.8ZM182.933 137.467C190.533 141.333 197.333 152.267 197.333 160.533C197.333 171.6 188 183.867 177.333 186.667C154.533 192.8 135.333 167.733 147.2 147.467C154.667 134.8 169.333 130.667 182.933 137.467Z" fill="#AAAAAA"/>
</svg>
