<svg width="489" height="489" viewBox="0 0 489 489" fill="none" xmlns="http://www.w3.org/2000/svg">
<path d="M181 2.20003C87.5333 17.5334 15.8 89.6667 2.19997 181.933C-0.733359 202.067 0.199975 237.933 4.19997 256.6C29 371.533 139 444.333 255 422.2C285.933 416.333 317.667 401.667 345.133 380.2L353.267 373.933L408.467 429.267C438.867 459.667 465.267 485.4 467.267 486.467C480.467 493.4 493.4 480.467 486.467 467.267C485.4 465.267 459.667 438.867 429.267 408.467L373.933 353.267L380.2 345.133C420.067 293.933 434.733 231.4 421.667 168.867C404.6 86.8667 339.667 22.2 256.467 4.20003C240.067 0.600032 197.267 -0.466635 181 2.20003ZM251.267 32.3334C274.6 37.2667 294.6 45.6667 314.467 58.7334C355.933 86.3334 383.8 127.267 394.467 176.333C397.4 189.8 398.467 221.933 396.467 236.733C385.267 320.333 320.333 385.267 236.733 396.467C221.933 398.467 189.8 397.4 176.333 394.467C103.133 378.6 47.8 323.4 32.0666 250.6C28.2 232.467 27.8 196.333 31.4 178.6C46.4666 103.933 104.867 45.6667 178.333 31.8C195.133 28.6 195.8 28.4667 217.667 29C231.933 29.4 242.333 30.3334 251.267 32.3334Z" fill="#AAAAAA"/>
</svg>
