<svg width="683" height="655" viewBox="0 0 683 655" fill="none" xmlns="http://www.w3.org/2000/svg">
<path d="M330.533 2.40005C322.267 5.46671 316.133 10 312.267 15.7334C310.133 18.8 290.8 62.5334 269.333 112.933C230.533 203.867 230.267 204.667 226.133 205.333C223.867 205.6 178.267 209.867 124.667 214.667C21.0667 224 21.7333 223.867 12.2667 232C3.06667 239.733 -2 256.4 1.2 268.267C2 271.333 4.66667 276.533 7.06667 279.733C9.33333 283.067 43.4667 313.867 82.6667 348.133C121.867 382.267 155.6 411.867 157.6 413.867L161.333 417.333L139.2 514C124.8 577.2 117.067 613.467 116.933 618.667C116.8 632.8 124 644.533 136.933 650.8C146.267 655.467 157.733 655.733 166.667 651.733C170 650.267 203.6 630.533 241.333 608C279.067 585.467 316.4 563.2 324.133 558.533C331.867 553.867 339.2 549.733 340.267 549.333C341.333 548.933 377.067 569.467 426.133 598.8C472.267 626.4 512.667 650.267 516 651.733C524.933 655.867 536.4 655.467 545.733 650.8C558.667 644.533 565.867 632.8 565.733 618.667C565.6 613.467 557.867 577.2 543.467 514L521.467 417.333L524.4 414.533C526 412.933 559.733 383.333 599.333 348.667C638.933 314.133 673.333 283.067 675.6 279.733C681.067 272.267 683.2 264.667 682.267 255.733C680.8 242.133 671.733 230 659.467 225.333C655.733 223.867 621.733 220.267 553.6 214.133C498.4 209.067 452.933 204.667 452.667 204.4C452.4 204.133 434.267 162.267 412.533 111.333C390.8 60.4001 371.333 16.5334 369.333 13.8667C361.067 3.60005 342.4 -1.99995 330.533 2.40005Z" fill="#AAAAAA"/>
</svg>
