<svg width="638" height="638" viewBox="0 0 638 638" fill="none" xmlns="http://www.w3.org/2000/svg">
<path d="M482 1.59999C415.333 6.39999 366.8 26.4 328.667 64.6667C299.2 94.1333 281.733 126.8 272.667 169.333C269.067 186.267 267.6 229.333 269.867 250.133C271.6 265.333 278.4 300 281.067 308L282.8 313.067L293.467 298.533C349.867 220.933 421.067 152 502.267 96.2667C511.467 89.8667 520.8 84.2667 522.933 83.8667C528.4 82.8 535.333 88.6667 535.333 94.2667C535.333 100.533 533.333 102.8 518.933 112.533C430.933 171.467 349.867 253.067 292.267 340.667C265.333 381.733 253.467 408 240.133 455.6C238.4 461.6 237.067 463.733 234 465.333C223.6 470.8 219.2 466.267 214 444.933C195.733 369.733 145.867 259.2 94.8 180.8C75.4667 151.067 42.4 107.2 37.0667 104.267C36 103.6 33.6 103.733 31.3333 104.667C26.8 106.533 0.666656 134.133 0.666656 137.067C0.666656 138.133 6.66666 147.2 14 157.2C73.7333 238.133 129.733 351.2 167.467 466.667C184.4 518.267 198.667 579.467 202.667 616.667C203.867 627.867 206.533 633.333 212 635.867C217.2 638.4 220.667 638.533 225.2 636.4C230.533 634 232 630.667 238.667 605.2C264.933 503.867 299.2 409.6 325.867 365.467C335.467 349.733 338.533 347.333 349.733 347.333C363.067 347.333 392.4 343.733 411.2 339.867C442.267 333.467 472.267 321.867 492.667 308.4C504.667 300.533 522.267 283.333 529.467 272.533C543.067 252 549.067 235.467 570.533 158.533C578.933 128.4 587.733 99.0667 590 93.2C599.2 70 613.733 45.6 630.133 26.1333C634.667 20.8 638 16.2667 637.867 16C636.8 15.0667 595.2 7.46665 580 5.46665C547.467 1.33332 507.733 -0.26668 482 1.59999Z" fill="#AAAAAA"/>
</svg>
