<svg width="672" height="673" viewBox="0 0 672 673" fill="none" xmlns="http://www.w3.org/2000/svg">
<path d="M591.333 7.93341C585.2 23.1334 571.333 49.4001 562.267 63.1334C542.667 92.3334 527.867 107.667 476 153C422.667 199.4 406.933 217 391.467 246.867C373.733 281.4 367.733 310.333 366.533 367C366 392.733 366.267 397.933 367.6 395.8C368.533 394.467 374 386.067 379.867 377.133C402 343 421.867 320.6 463.333 283.133C505.467 245.133 522 227.133 541.067 198.067C555.733 175.8 581.867 126.467 588.667 108.333C590.8 102.733 593.467 100.333 597.6 100.333C608.8 100.333 608.933 117.933 598.133 155.667C588.4 189.267 574.933 218.6 557.333 245.133C543.6 265.533 533.067 278.2 506 306.733C470.933 343.8 460.933 355 447.467 373C430.8 395.267 415.467 419.533 416.933 421.133C417.2 421.4 419.6 421 422.133 420.333C424.667 419.667 442.533 416.067 462 412.467C515.067 402.333 535.733 396.333 562.533 382.6C606.533 360.2 637.6 321.267 656 265.4C673.2 212.867 675.733 161.8 663.467 114.067C653.333 74.7334 630.8 35.8001 601.6 7.26675L594.4 0.200082L591.333 7.93341Z" fill="#AAAAAA"/>
<path d="M312.667 54.6C254.267 60.2 201.733 81.1333 158 116.2C152.533 120.6 148 124.6 148 125.133C148 125.533 152.8 127.4 158.667 129C164.533 130.733 174.8 134.467 181.333 137.267L193.333 142.467L204 135.533C265.2 95.6667 341.467 85.8 410.667 108.6C425.467 113.4 451.467 125.8 464.4 134.2L474.267 140.467L489.733 126.733C498.133 119.133 505.2 112.467 505.2 111.667C505.467 109.267 478.667 92.3333 460 83C429.733 68.0667 396.533 58.4667 362.133 55C349.333 53.8 323.6 53.5333 312.667 54.6Z" fill="#AAAAAA"/>
<path d="M587.067 137.267C576.267 159.8 562 185.267 550.4 203C530.8 233 514.667 251 479.333 282.867C428.667 328.6 405.067 355.4 382.267 393.267C362.133 426.6 344.933 470.2 334.667 514.333C334.133 516.467 333.467 517.667 333.2 517C332.933 516.2 330 506.2 326.667 494.733C307.2 426.867 272.933 358.467 228.933 299.667C209.733 273.933 180 240.6 163.6 226.2L154.667 218.333L159.733 224.733C213.2 291 260.933 381.667 287.867 468.467C306.8 529.667 319.333 606.467 319.333 661.8V672.333H335.067H350.933L351.867 646.333C356.267 519 386.8 427.8 451.067 350.6C456.533 344.067 473.867 325.4 489.6 309.267C505.2 293.133 522 275.133 526.8 269.133C553.067 236.6 574.933 195.667 586.4 157.667C591.2 141.8 595.6 124.333 595.067 122.733C594.8 122.067 591.2 128.6 587.067 137.267Z" fill="#AAAAAA"/>
<path d="M61.3334 130.6C40.2667 132.467 0.133353 139.8 0.933353 141.667C1.20002 142.067 6.13335 146.733 12.1334 151.933C35.2 172.2 52.4 195.8 61.2 219.4C66 232.067 69.2 245.133 74.6667 275C81.6 312.333 87.2 327.933 100.933 347.933C121.467 377.667 157.467 398.6 205.867 409.133C220.267 412.2 256.4 417.133 257.333 416.067C258.133 415.267 240.667 376.067 230.667 356.333C208.4 312.067 179.867 267 152 232.467C140.933 218.6 139.333 213.533 144.933 208.333C149.067 204.6 154 205 160.8 209.8C171.2 217.133 204.933 252.467 222.533 274.333C240.933 297.4 268.533 337.8 281.333 360.6C287.867 372.333 289.6 374.467 290.667 372.6C291.467 371.267 292 357.667 292 339C292 303.8 290.4 293.133 281.2 266.867C264.4 218.467 225.867 171.133 187.467 151.667C167.2 141.4 139.333 133.667 112.8 131C99.8667 129.8 73.3334 129.533 61.3334 130.6Z" fill="#AAAAAA"/>
<path d="M58.8001 277.4C54.1334 299.933 53.3334 308.2 53.4667 337C53.4667 369.4 55.4667 385 63.3334 412.6C90.5334 509.533 167.467 584.6 265.2 609.8C277.067 612.867 305.067 617.8 305.867 616.867C306.533 616.2 302.133 578.333 301.2 575.667C300.8 574.6 298.267 573.4 295.6 572.867C292.8 572.467 284.8 570.6 277.733 568.867C184.133 545.667 114.267 469.8 98.5334 374.467C96.4001 361.267 95.7334 359.4 89.2001 349.4C77.6001 331.8 69.3334 307.933 64.6667 278.6C63.7334 272.867 62.5334 267.933 62.0001 267.667C61.4667 267.4 60.0001 271.667 58.8001 277.4Z" fill="#AAAAAA"/>
<path d="M607.333 364.6C599.333 372.067 572.533 391 570.133 391C569.6 391 567.733 395.933 566.133 401.933C562.267 415.667 557.067 428.867 549.2 444.6C516.8 509.533 455.467 556.333 383.733 571.267C375.733 572.867 368.933 574.733 368.533 575.4C368 576.067 366.933 584.2 366.133 593.533C365.2 602.733 364.267 611.933 364 614.067C363.333 618.2 362.667 618.2 386 614.2C492.133 595.8 581.6 513 608.533 408.067C613.067 390.733 617.067 366.467 616.4 360.6L616 356.6L607.333 364.6Z" fill="#AAAAAA"/>
</svg>
